<svg width="124" height="40" viewBox="0 0 124 40" fill="none" xmlns="http://www.w3.org/2000/svg">
<path d="M19.6753 0C14.4356 0.0624423 9.43174 2.18771 5.74861 5.91499C2.06549 9.64227 0 14.6711 0 19.9112C0 25.1512 2.06549 30.1801 5.74861 33.9073C9.43174 37.6346 14.4356 39.7599 19.6753 39.8223H39.5879V19.9126C39.5879 14.6314 37.4899 9.56659 33.7556 5.83226C30.0213 2.09793 24.9564 0 19.6753 0V0ZM35.6348 35.8466H31.6534V25.8903C31.6528 24.7093 31.3021 23.5549 30.6455 22.5732C29.989 21.5914 29.0561 20.8264 27.9648 20.3748C26.8735 19.9233 25.6728 19.8054 24.5145 20.0362C23.3562 20.2669 22.2923 20.8359 21.4574 21.6712C20.6225 22.5066 20.054 23.5707 19.8238 24.7291C19.5936 25.8875 19.712 27.0881 20.1641 28.1792C20.6162 29.2703 21.3816 30.2028 22.3637 30.8589C23.3457 31.515 24.5003 31.8652 25.6813 31.8652H27.6607V35.8466H25.6813C23.712 35.8472 21.7868 35.2637 20.1491 34.17C18.5114 33.0764 17.2349 31.5216 16.4809 29.7024C15.7269 27.8831 15.5293 25.8812 15.9131 23.9497C16.297 22.0181 17.245 20.2438 18.6373 18.8511C20.0296 17.4585 21.8036 16.5099 23.7351 16.1255C25.6665 15.7411 27.6685 15.9381 29.4879 16.6916C31.3074 17.4451 32.8625 18.7212 33.9566 20.3586C35.0508 21.996 35.6348 23.921 35.6348 25.8903V35.8466Z" fill="#171617"/>
<path d="M53.0505 12.3513H50.0984C49.7842 12.3515 49.4769 12.443 49.2139 12.6147C48.9508 12.7864 48.7433 13.0309 48.6167 13.3184L43.6767 24.4906C43.5712 24.7369 43.5283 25.0055 43.5519 25.2724C43.5754 25.5393 43.6647 25.7962 43.8117 26.0202C43.9587 26.2442 44.1589 26.4283 44.3944 26.5561C44.6298 26.684 44.8933 26.7515 45.1612 26.7527H46.8267L51.0146 16.3384L55.1882 26.7669H59.4298L53.0505 12.3513Z" fill="#171617"/>
<path d="M68.7894 23.5377V12.3513H66.3265C65.8968 12.3513 65.4847 12.522 65.1808 12.8259C64.8769 13.1297 64.7062 13.5419 64.7062 13.9716V25.1466C64.7062 25.3594 64.7481 25.5701 64.8296 25.7667C64.911 25.9632 65.0303 26.1418 65.1808 26.2923C65.3313 26.4428 65.5099 26.5621 65.7065 26.6435C65.903 26.725 66.1137 26.7669 66.3265 26.7669H75.6579V23.5377H68.7894Z" fill="#171617"/>
<path d="M81.3896 13.9716V25.1466C81.3903 25.5761 81.5613 25.9878 81.865 26.2915C82.1687 26.5952 82.5804 26.7662 83.0099 26.7669H85.4615V12.3457H83.0099C82.7967 12.3461 82.5857 12.3884 82.3889 12.4703C82.1922 12.5522 82.0134 12.6721 81.863 12.8231C81.7125 12.9741 81.5933 13.1532 81.5121 13.3503C81.4308 13.5473 81.3892 13.7585 81.3896 13.9716Z" fill="#171617"/>
<path d="M91.1253 13.9716C91.1253 14.4013 91.296 14.8134 91.5999 15.1173C91.9037 15.4211 92.3159 15.5918 92.7456 15.5918H95.5591V25.1466C95.5599 25.5761 95.7308 25.9878 96.0345 26.2915C96.3382 26.5952 96.7499 26.7661 97.1794 26.7669H99.631V15.5918H104.042V12.3513H92.7456C92.3161 12.3521 91.9044 12.523 91.6007 12.8267C91.297 13.1304 91.1261 13.5421 91.1253 13.9716Z" fill="#171617"/>
<path d="M117.615 12.3514H114.649C114.333 12.3494 114.023 12.4398 113.758 12.6117C113.492 12.7835 113.283 13.0292 113.156 13.3184L108.238 24.4934C108.133 24.7397 108.09 25.0083 108.114 25.2752C108.137 25.5421 108.226 25.799 108.373 26.023C108.52 26.247 108.721 26.4312 108.956 26.559C109.192 26.6868 109.455 26.7544 109.723 26.7556H111.391L115.579 16.3412L116.645 18.9964L117.428 20.9503L119.758 26.7556H124L117.615 12.3514Z" fill="#171617"/>
<path d="M43.9849 39.6131V31.6702H44.7258V39.6216L43.9849 39.6131Z" fill="#171617"/>
<path d="M51.2973 32.6768H51.2775V39.6131H50.5338V31.6702H51.3538L55.8103 38.6178H55.8301V31.6702H56.5738V39.6216H55.7254L51.2973 32.6768Z" fill="#171617"/>
<path d="M62.2122 39.6131V31.6702H67.1946V32.3064H62.9531V35.1878H66.8044V35.824H62.9559V39.6216L62.2122 39.6131Z" fill="#171617"/>
<path d="M71.8857 35.6515C71.8444 34.5838 72.1697 33.534 72.8075 32.6768C73.4145 31.8737 74.2921 31.4656 75.4401 31.4524C76.6617 31.4675 77.575 31.8718 78.1801 32.6655C78.768 33.5409 79.082 34.5715 79.082 35.6261C79.082 36.6806 78.768 37.7112 78.1801 38.5866C77.575 39.3954 76.6739 39.8073 75.4769 39.8223C74.2921 39.8082 73.3957 39.3954 72.7962 38.5895C72.1726 37.7396 71.852 36.7051 71.8857 35.6515ZM75.491 39.1861C76.4864 39.172 77.2102 38.8157 77.6655 38.1116C78.1291 37.3765 78.3633 36.5202 78.3385 35.6515C78.3046 33.3215 77.3488 32.1339 75.4712 32.0886C74.4928 32.1056 73.7746 32.4647 73.3193 33.1603C72.8446 33.9028 72.6033 34.7705 72.6266 35.6515C72.6245 36.103 72.6825 36.5528 72.7991 36.989C72.8926 37.3963 73.0667 37.7809 73.3109 38.1201C73.7661 38.8157 74.4928 39.172 75.491 39.1861Z" fill="#171617"/>
<path d="M83.8384 31.6702H89.4598V32.3064H87.0195V39.6216H86.2758V32.2979H83.8384V31.6702Z" fill="#171617"/>
<path d="M94.4308 39.6131V31.6702H99.5829V32.3064H95.1745V35.1878H99.1333V35.824H95.1745V38.9854H99.679V39.6216L94.4308 39.6131Z" fill="#171617"/>
<path d="M110.416 33.9719C110.116 32.6938 109.305 32.0661 107.984 32.0887C107.057 32.1057 106.384 32.4563 105.959 33.1406C105.506 33.889 105.285 34.7549 105.323 35.629C105.32 36.0634 105.366 36.4969 105.459 36.9212C105.544 37.3257 105.695 37.7136 105.906 38.0693C106.307 38.8063 107.023 39.1834 108.052 39.2003C108.35 39.2094 108.646 39.1582 108.924 39.0498C109.201 38.9415 109.454 38.7782 109.666 38.5698C110.091 38.1459 110.379 37.604 110.492 37.0145H111.25C111.117 37.7611 110.764 38.4506 110.235 38.9939C109.712 39.5594 108.934 39.8422 107.905 39.8422C106.723 39.8196 105.875 39.3992 105.36 38.5811C104.805 37.6993 104.532 36.6697 104.577 35.629C104.577 34.1209 104.921 33.0416 105.609 32.3913C105.95 32.0697 106.353 31.8202 106.793 31.6575C107.234 31.4947 107.702 31.4221 108.171 31.444C109.835 31.444 110.834 32.2838 111.168 33.9635L110.416 33.9719Z" fill="#171617"/>
<path d="M116.654 39.6131V31.6702H117.397V35.086H121.941V31.6702H122.685V39.6216H121.941V35.7194H117.397V39.6216L116.654 39.6131Z" fill="#171617"/>
</svg>
